# xmcd
#
# Track frame offsets:
#	150
#	24800
#	46509
#	73447
#	102450
#	131361
#	155856
#	198125
#	230281
#	247271
#
# Disc length: 3803 seconds
#
# Revision: 1
# Processed by: cddbd v1.5.2PL0 Copyright (c) Steve Scherf et al.
# Submitted via: audiograbber 1.83.01
#
DISCID=830ed90a
DTITLE=Goran Bare - Srce
DYEAR=2006
DGENRE=Rock
TTITLE0=izabirem zivot
TTITLE1=svako jutro
TTITLE2=i dok plese sama s kisom
TTITLE3=uh kakav svijet
TTITLE4=ovisnicki blues
TTITLE5=ni'ko ne moze sam
TTITLE6=pomozi mi
TTITLE7=profesionalno na balkanu sviram rokenrol
TTITLE8=waltz za pokojne
TTITLE9=tamna je noc
EXTD=
EXTT0=
EXTT1=
EXTT2=
EXTT3=
EXTT4=
EXTT5=
EXTT6=
EXTT7=
EXTT8=
EXTT9=
PLAYORDER=
